<svg width="24" height="24" viewBox="0 0 24 24" fill="none" xmlns="http://www.w3.org/2000/svg">
<g clip-path="url(#clip0_194_17)">
<path fill-rule="evenodd" clip-rule="evenodd" d="M11.3764 0.163774C11.7623 -0.0539403 12.2375 -0.0539403 12.6229 0.163774C14.53 1.23977 20.2687 4.47863 22.1763 5.55463C22.5623 5.77177 22.7999 6.17406 22.7999 6.60948C22.7999 8.76148 22.7999 15.2386 22.7999 17.3906C22.7999 17.826 22.5623 18.2283 22.1763 18.446C20.2693 19.522 14.5305 22.7609 12.6229 23.8369C12.237 24.0546 11.7618 24.0546 11.3764 23.8369C9.46932 22.7609 3.73056 19.522 1.82294 18.446C1.43755 18.2283 1.19995 17.8266 1.19995 17.3912C1.19995 15.2392 1.19995 8.76205 1.19995 6.61005C1.19995 6.17463 1.43755 5.77234 1.82351 5.55463C3.72999 4.47863 9.46989 1.23977 11.3764 0.163774Z" fill="#004482"/>
<path fill-rule="evenodd" clip-rule="evenodd" d="M1.37275 17.9453C1.22155 17.7419 1.19995 17.5487 1.19995 17.2887C1.19995 15.1493 1.19995 8.7093 1.19995 6.5693C1.19995 6.13616 1.43698 5.73616 1.8218 5.52016C3.72203 4.45044 9.44147 1.23045 11.3417 0.160161C11.7265 -0.0564104 12.2478 -0.051839 12.6326 0.164732C14.5328 1.23445 20.2329 4.42701 22.1331 5.49673C22.2866 5.58359 22.4037 5.68816 22.5083 5.82587L1.37275 17.9453Z" fill="#659AD2"/>
<path fill-rule="evenodd" clip-rule="evenodd" d="M12 4C16.3922 4 19.9579 7.58457 19.9579 12C19.9579 16.4154 16.3922 20 12 20C7.60781 20 4.04211 16.4154 4.04211 12C4.04211 7.58457 7.60781 4 12 4ZM12 8C14.1958 8 15.9789 9.792 15.9789 12C15.9789 14.2074 14.1958 16 12 16C9.80419 16 8.02105 14.2074 8.02105 12C8.02105 9.792 9.80362 8 12 8Z" fill="white"/>
<path fill-rule="evenodd" clip-rule="evenodd" d="M22.5073 5.83154C22.8006 6.10754 22.7949 6.52354 22.7949 6.85097C22.7949 9.01954 22.7767 15.1875 22.8 17.3561C22.8023 17.5824 22.7278 17.8207 22.6164 18.0001L11.7687 12.0001L22.5073 5.83154Z" fill="#00599C"/>
</g>
<defs>
<clipPath id="clip0_194_17">
<rect width="24" height="24" fill="white"/>
</clipPath>
</defs>
</svg>
