<svg width="18" height="18" viewBox="0 0 18 18" fill="none" xmlns="http://www.w3.org/2000/svg">
<path opacity="0.2" d="M6.33992 9.65521L4.0251 3.75L1.65721 9.6698C1.57811 9.8675 1.62672 10.1036 1.79152 10.2384C3.07722 11.2897 4.76501 11.3043 6.18611 10.2356C6.36191 10.1034 6.42022 9.86011 6.33992 9.65521Z" fill="#184862"/>
<path opacity="0.2" d="M11.6602 9.65521L13.975 3.75L16.3429 9.6698C16.422 9.8675 16.3734 10.1036 16.2086 10.2384C14.9229 11.2897 13.2351 11.3043 11.814 10.2356C11.6382 10.1034 11.5799 9.86011 11.6602 9.65521Z" fill="#184862"/>
<path d="M6.33992 9.65521L4.0251 3.75L1.65721 9.6698C1.57811 9.8675 1.62672 10.1036 1.79152 10.2384C3.07722 11.2897 4.76501 11.3043 6.18611 10.2356C6.36191 10.1034 6.42022 9.86011 6.33992 9.65521Z" stroke="#184862" stroke-linecap="round" stroke-linejoin="round"/>
<path d="M11.6548 9.66901L13.975 3.75L16.3482 9.68298C16.4241 9.87268 16.3772 10.0995 16.2195 10.2294C14.9289 11.2924 13.2298 11.3073 11.8023 10.2267C11.6339 10.0992 11.5777 9.86561 11.6548 9.66901Z" stroke="#184862" stroke-linecap="round" stroke-linejoin="round"/>
<path d="M9 1.75V15.75" stroke="#184862" stroke-linecap="round" stroke-linejoin="round"/>
<path d="M13.25 15.75H4.75" stroke="#184862" stroke-linecap="round" stroke-linejoin="round"/>
<path d="M13.9749 3.75H4.0249" stroke="#184862" stroke-linecap="round" stroke-linejoin="round"/>
<path d="M9 13.25C9 14.6307 7.8807 15.75 6.5 15.75" stroke="#184862" stroke-linecap="round" stroke-linejoin="round"/>
<path d="M9 13.25C9 14.6307 10.1193 15.75 11.5 15.75" stroke="#184862" stroke-linecap="round" stroke-linejoin="round"/>
</svg>
