<svg width="12" height="12" viewBox="0 0 12 12" fill="none" xmlns="http://www.w3.org/2000/svg">
<path d="M2.43209 5.99996C1.61076 5.99996 0.997423 5.75463 0.59209 5.26396C0.197423 4.76263 8.98838e-05 4.02663 8.98838e-05 3.05596C8.98838e-05 2.07463 0.197423 1.33863 0.59209 0.84796C0.997423 0.357294 1.61076 0.11196 2.43209 0.11196C3.25342 0.11196 3.86142 0.357294 4.25609 0.84796C4.65076 1.33863 4.84809 2.07463 4.84809 3.05596C4.84809 4.02663 4.65076 4.76263 4.25609 5.26396C3.86142 5.75463 3.25342 5.99996 2.43209 5.99996ZM2.43209 4.95996C2.57076 4.95996 2.72542 4.91729 2.89609 4.83196C3.07742 4.73596 3.23209 4.55463 3.36009 4.28796C3.49876 4.01063 3.56809 3.59996 3.56809 3.05596C3.56809 2.50129 3.49876 2.09063 3.36009 1.82396C3.23209 1.54663 3.07742 1.36529 2.89609 1.27996C2.72542 1.18396 2.57076 1.13596 2.43209 1.13596C2.29342 1.13596 2.13342 1.18396 1.95209 1.27996C1.78142 1.36529 1.62676 1.54663 1.48809 1.82396C1.36009 2.09063 1.29609 2.50129 1.29609 3.05596C1.29609 3.59996 1.36009 4.01063 1.48809 4.28796C1.62676 4.55463 1.78142 4.73596 1.95209 4.83196C2.13342 4.91729 2.29342 4.95996 2.43209 4.95996ZM8.96009 11.088C8.13876 11.088 7.52542 10.8426 7.12009 10.352C6.72542 9.85063 6.52809 9.11463 6.52809 8.14396C6.52809 7.16263 6.72542 6.42663 7.12009 5.93596C7.52542 5.44529 8.13876 5.19996 8.96009 5.19996C9.78142 5.19996 10.3894 5.44529 10.7841 5.93596C11.1788 6.42663 11.3761 7.16263 11.3761 8.14396C11.3761 9.11463 11.1788 9.85063 10.7841 10.352C10.3894 10.8426 9.78142 11.088 8.96009 11.088ZM8.96009 10.048C9.09876 10.048 9.25342 10.0053 9.42409 9.91996C9.60542 9.82396 9.76009 9.64263 9.88809 9.37596C10.0268 9.09863 10.0961 8.68796 10.0961 8.14396C10.0961 7.58929 10.0268 7.17863 9.88809 6.91196C9.76009 6.63463 9.60542 6.45329 9.42409 6.36796C9.25342 6.27196 9.09876 6.22396 8.96009 6.22396C8.82142 6.22396 8.66142 6.27196 8.48009 6.36796C8.30942 6.45329 8.15476 6.63463 8.01609 6.91196C7.88809 7.17863 7.82409 7.58929 7.82409 8.14396C7.82409 8.68796 7.88809 9.09863 8.01609 9.37596C8.15476 9.64263 8.30942 9.82396 8.48009 9.91996C8.66142 10.0053 8.82142 10.048 8.96009 10.048ZM1.71209 11.312L8.22409 -4.00543e-05H9.58409L3.07209 11.312H1.71209Z" fill="white"/>
</svg>
