<svg width="18" height="18" viewBox="0 0 18 18" fill="none" xmlns="http://www.w3.org/2000/svg">
<path opacity="0.2" d="M9 16.25C12.4518 16.25 15.25 13.4518 15.25 10C15.25 6.54822 12.4518 3.75 9 3.75C5.54822 3.75 2.75 6.54822 2.75 10C2.75 13.4518 5.54822 16.25 9 16.25Z" fill="#184862"/>
<path d="M6.75 1.25H11.25" stroke="#184862" stroke-width="1.25" stroke-linecap="round" stroke-linejoin="round"/>
<path d="M9 1.25V3.75" stroke="#184862" stroke-width="1.25" stroke-linecap="round" stroke-linejoin="round"/>
<path d="M9 16.25C12.4518 16.25 15.25 13.4518 15.25 10C15.25 6.54822 12.4518 3.75 9 3.75C5.54822 3.75 2.75 6.54822 2.75 10C2.75 13.4518 5.54822 16.25 9 16.25Z" stroke="#184862" stroke-width="1.25" stroke-linecap="round" stroke-linejoin="round"/>
<path d="M6.70203 7.70215L9.00003 10.0001" stroke="#184862" stroke-width="1.25" stroke-linecap="round" stroke-linejoin="round"/>
<path d="M14.25 2.75L16.25 4.75" stroke="#184862" stroke-width="1.25" stroke-linecap="round" stroke-linejoin="round"/>
</svg>
