<svg width="18" height="18" viewBox="0 0 18 18" fill="none" xmlns="http://www.w3.org/2000/svg">
<path opacity="0.2" d="M11.32 7.5H6.67996C5.76996 7.5 4.97996 8.11 4.74996 8.98L3.81996 12.48C3.47996 13.75 4.43996 15 5.74996 15H12.25C13.56 15 14.52 13.75 14.18 12.48L13.25 8.98C13.02 8.1 12.22 7.5 11.32 7.5Z" fill="#184862"/>
<path d="M11.32 7.5H6.67996C5.76996 7.5 4.97996 8.11 4.74996 8.98L3.81996 12.48C3.47996 13.75 4.43996 15 5.74996 15H12.25C13.56 15 14.52 13.75 14.18 12.48L13.25 8.98C13.02 8.1 12.22 7.5 11.32 7.5Z" stroke="#184862" stroke-width="1.25" stroke-linecap="round" stroke-linejoin="round"/>
<path d="M6.88 7.5C6.49 7.02 6.25 6.41 6.25 5.75C6.25 4.23 7.48 3 9 3C10.52 3 11.75 4.23 11.75 5.75C11.75 6.41 11.51 7.02 11.12 7.5" stroke="#184862" stroke-width="1.25" stroke-linecap="round" stroke-linejoin="round"/>
</svg>
