<svg width="18" height="18" viewBox="0 0 18 18" fill="none" xmlns="http://www.w3.org/2000/svg">
<path opacity="0.2" d="M2.6649 5.08589L8.5339 1.99489C8.8259 1.84089 9.1739 1.84089 9.4659 1.99489L15.3359 5.08589C15.8699 5.36689 15.8699 6.13189 15.3359 6.41289L9.4659 9.50389C9.1739 9.65789 8.8259 9.65789 8.5339 9.50389L2.6649 6.41389C2.1309 6.13289 2.1309 5.36689 2.6649 5.08589Z" fill="#184862"/>
<path d="M2.6649 5.08589L8.5339 1.99489C8.8259 1.84089 9.1739 1.84089 9.4659 1.99489L15.3359 5.08589C15.8699 5.36689 15.8699 6.13189 15.3359 6.41289L9.4659 9.50389C9.1739 9.65789 8.8259 9.65789 8.5339 9.50389L2.6649 6.41389C2.1309 6.13289 2.1309 5.36689 2.6649 5.08589Z" stroke="#184862" stroke-width="1.25" stroke-linecap="round" stroke-linejoin="round"/>
<path d="M15.736 9C15.736 9.261 15.602 9.523 15.335 9.664L9.46496 12.755C9.17296 12.909 8.82496 12.909 8.53296 12.755L2.66296 9.664C2.39596 9.523 2.26196 9.262 2.26196 9" stroke="#184862" stroke-width="1.25" stroke-linecap="round" stroke-linejoin="round"/>
<path d="M15.736 12.25C15.736 12.511 15.602 12.773 15.335 12.914L9.46496 16.005C9.17296 16.159 8.82496 16.159 8.53296 16.005L2.66296 12.914C2.39596 12.773 2.26196 12.512 2.26196 12.25" stroke="#184862" stroke-width="1.25" stroke-linecap="round" stroke-linejoin="round"/>
</svg>
