<svg width="24" height="24" viewBox="0 0 24 24" fill="none" xmlns="http://www.w3.org/2000/svg">
<g clip-path="url(#clip0_194_83)">
<path d="M11.9592 0C6.2928 0 6.23193 2.19949 6.23193 2.65222C6.23193 3.33905 6.23193 5.4 6.23193 5.4H12.0683V6.22495C12.0683 6.22495 5.99149 6.22495 3.91375 6.22495C2.17942 6.22495 0 7.27942 0 11.9522C0 16.2445 1.70007 17.9044 3.41585 17.9044C3.92531 17.9044 5.45455 17.9044 5.45455 17.9044C5.45455 17.9044 5.45455 15.7739 5.45455 15.0408C5.45455 13.8428 6.04822 11.6249 8.81586 11.6249C12.2871 11.6249 13.1732 11.6249 14.6044 11.6249C15.4558 11.6249 17.8567 11.2549 17.8567 8.48182C17.8567 5.54684 17.8567 4.57855 17.8567 3.19767C17.8569 2.50975 17.7393 0 11.9592 0ZM8.74102 1.84778C9.32182 1.84778 9.79113 2.31687 9.79113 2.89789C9.79113 3.47847 9.32182 3.948 8.74102 3.948C8.16022 3.948 7.69091 3.47869 7.69091 2.89789C7.69091 2.31687 8.16022 1.84778 8.74102 1.84778Z" fill="url(#paint0_linear_194_83)"/>
<path d="M12.0409 24.0001C17.7046 24.0001 17.7751 21.7592 17.7751 21.3479C17.7751 20.6611 17.7751 18.6001 17.7751 18.6001H11.9318V17.7752C11.9318 17.7752 18.0478 17.7752 20.0863 17.7752C21.8337 17.7752 24.0001 16.6943 24.0001 12.0479C24.0001 6.95948 21.7009 6.0957 20.5842 6.0957C20.0745 6.0957 18.5455 6.0957 18.5455 6.0957C18.5455 6.0957 18.5455 8.32465 18.5455 8.95934C18.5455 10.1574 17.9715 12.3752 15.1842 12.3752C11.7129 12.3752 10.9349 12.3752 9.39541 12.3752C8.54624 12.3752 6.14319 12.7889 6.14319 15.5183C6.14319 18.6765 6.14319 19.5034 6.14319 20.8025C6.14319 21.9436 6.8405 24.0001 12.0409 24.0001ZM15.2593 22.1524C14.6785 22.1524 14.2092 21.683 14.2092 21.1022C14.2092 20.5214 14.6782 20.0521 15.2593 20.0521C15.8398 20.0521 16.3094 20.5214 16.3094 21.1022C16.3094 21.683 15.8398 22.1524 15.2593 22.1524Z" fill="url(#paint1_linear_194_83)"/>
</g>
<defs>
<linearGradient id="paint0_linear_194_83" x1="2.24913" y1="2.1439" x2="14.1788" y2="14.1134" gradientUnits="userSpaceOnUse">
<stop stop-color="#387EB8"/>
<stop offset="1" stop-color="#366994"/>
</linearGradient>
<linearGradient id="paint1_linear_194_83" x1="9.49904" y1="9.79149" x2="22.2893" y2="22.0452" gradientUnits="userSpaceOnUse">
<stop stop-color="#FFE052"/>
<stop offset="1" stop-color="#FFC331"/>
</linearGradient>
<clipPath id="clip0_194_83">
<rect width="24" height="24" fill="white"/>
</clipPath>
</defs>
</svg>
