<svg width="18" height="18" viewBox="0 0 18 18" fill="none" xmlns="http://www.w3.org/2000/svg">
<path d="M10.4871 14.5839L12.2551 12.8159" stroke="#184862" stroke-width="1.25" stroke-linecap="round" stroke-linejoin="round"/>
<path d="M8.46704 12.5629L11.7981 15.8939C12.1891 16.2849 12.8221 16.2849 13.2121 15.8939L15.8941 13.2119C16.2851 12.8209 16.2851 12.1879 15.8941 11.7979L14.6851 10.5889" stroke="#184862" stroke-width="1.25" stroke-linecap="round" stroke-linejoin="round"/>
<path opacity="0.2" fill-rule="evenodd" clip-rule="evenodd" d="M14.1711 6.86006L11.1411 3.83008L3.766 11.2052C2.82897 12.1422 2.263 15.6757 2.25119 15.75C2.2504 15.7501 2.25 15.7502 2.25 15.7502L2.251 15.7512C2.251 15.7512 2.25106 15.7508 2.25119 15.75C2.32546 15.7382 5.85897 15.1722 6.796 14.2352L14.1711 6.86006Z" fill="#184862"/>
<path d="M9.53299 5.43675L6.20199 2.10575C5.81099 1.71475 5.17799 1.71475 4.78799 2.10575L2.10599 4.78775C1.71499 5.17875 1.71499 5.81175 2.10599 6.20175L5.43699 9.53275" stroke="#184862" stroke-width="1.25" stroke-linecap="round" stroke-linejoin="round"/>
<path d="M3.41602 7.51312L5.18401 5.74512" stroke="#184862" stroke-width="1.25" stroke-linecap="round" stroke-linejoin="round"/>
<path d="M2.25 15.7498C2.25 15.7498 5.849 15.1818 6.796 14.2348C7.743 13.2878 15.373 5.65775 15.373 5.65775C16.21 4.82075 16.21 3.46375 15.373 2.62775C14.536 1.79075 13.179 1.79075 12.343 2.62775C12.343 2.62775 4.713 10.2578 3.766 11.2048C2.819 12.1518 2.251 15.7508 2.251 15.7508L2.25 15.7498Z" stroke="#184862" stroke-width="1.25" stroke-linecap="round" stroke-linejoin="round"/>
<path d="M11.121 3.84814L14.152 6.87914" stroke="#184862" stroke-width="1.25" stroke-linecap="round" stroke-linejoin="round"/>
</svg>
