<svg width="16" height="16" viewBox="0 0 16 16" fill="none" xmlns="http://www.w3.org/2000/svg">
<g clip-path="url(#clip0_143_1251)">
<path opacity="0.1" d="M8.00011 14.4446C11.5593 14.4446 14.4446 11.5592 14.4446 8.00011C14.4446 4.441 11.5593 1.55566 8.00011 1.55566C4.44091 1.55566 1.55566 4.441 1.55566 8.00011C1.55566 11.5592 4.44091 14.4446 8.00011 14.4446Z" fill="#1A7DAF"/>
<path d="M8.00011 14.4446C11.5592 14.4446 14.4446 11.5592 14.4446 8.00011C14.4446 4.441 11.5592 1.55566 8.00011 1.55566C4.441 1.55566 1.55566 4.441 1.55566 8.00011C1.55566 11.5592 4.441 14.4446 8.00011 14.4446Z" stroke="#1A7DAF" stroke-width="1.25" stroke-linecap="round" stroke-linejoin="round"/>
<path d="M8.00003 11.3334V8.22228C8.00003 7.97685 7.801 7.77783 7.55558 7.77783H6.88892" stroke="#1A7DAF" stroke-width="1.25" stroke-linecap="round" stroke-linejoin="round"/>
<path d="M7.99997 5.99995C7.50931 5.99995 7.11108 5.60083 7.11108 5.11106C7.11108 4.62128 7.50931 4.22217 7.99997 4.22217C8.49064 4.22217 8.88886 4.62128 8.88886 5.11106C8.88886 5.60083 8.49064 5.99995 7.99997 5.99995Z" fill="#1A7DAF"/>
</g>
<defs>
<clipPath id="clip0_143_1251">
<rect width="16" height="16" fill="white"/>
</clipPath>
</defs>
</svg>
