<svg width="15" height="14" viewBox="0 0 15 14" fill="none" xmlns="http://www.w3.org/2000/svg">
<path opacity="0.2" d="M6.1387 1.28L0.713686 10.68C0.108686 11.7299 0.864686 13.04 2.07569 13.04H12.9257C14.1367 13.04 14.8927 11.7299 14.2877 10.68L8.86274 1.28C8.2577 0.24 6.7437 0.24 6.1387 1.28Z" fill="#AA2647"/>
<path d="M6.1387 1.28L0.713686 10.68C0.108686 11.7299 0.864686 13.04 2.07569 13.04H12.9257C14.1367 13.04 14.8927 11.7299 14.2877 10.68L8.86274 1.28C8.2577 0.24 6.7437 0.24 6.1387 1.28Z" stroke="#AA2647" stroke-linecap="round" stroke-linejoin="round"/>
<path d="M7.50073 4.54004V7.54004" stroke="#AA2647" stroke-linecap="round" stroke-linejoin="round"/>
<path d="M7.50073 11.29C6.94873 11.29 6.50073 10.84 6.50073 10.29C6.50073 9.74004 6.94873 9.29004 7.50073 9.29004C8.05273 9.29004 8.50073 9.74014 8.50073 10.29C8.50073 10.8399 8.05273 11.29 7.50073 11.29Z" fill="#AA2647"/>
</svg>
