<svg width="18" height="18" viewBox="0 0 18 18" fill="none" xmlns="http://www.w3.org/2000/svg">
<path opacity="0.2" d="M8.99998 14.8002C11.4304 14.8002 13.4 12.8242 13.4 10.3866C13.4 7.0338 8.99998 3.2002 8.99998 3.2002C8.99998 3.2002 4.59998 7.0338 4.59998 10.3866C4.59998 12.8242 6.56958 14.8002 8.99998 14.8002Z" fill="#184862"/>
<path d="M8.58923 2.72852C8.82447 2.52367 9.17525 2.52373 9.41052 2.72852L9.4115 2.72949L9.41541 2.7334C9.41804 2.73571 9.42154 2.73909 9.42615 2.74316C9.4355 2.75143 9.44913 2.76303 9.46619 2.77832C9.50074 2.8093 9.55094 2.85503 9.61365 2.91309C9.73902 3.02914 9.91691 3.19719 10.1293 3.40918C10.5534 3.83258 11.1205 4.43473 11.6888 5.14648C12.797 6.53435 14.0248 8.47902 14.0248 10.3867C14.0247 13.1675 11.7776 15.4246 9.00037 15.4248C6.22298 15.4248 3.97504 13.1676 3.97498 10.3867C3.97498 8.47884 5.20361 6.53438 6.31189 5.14648C6.88021 4.43479 7.44636 3.83258 7.87048 3.40918C8.08278 3.19725 8.26075 3.02914 8.38611 2.91309C8.44882 2.85503 8.49902 2.8093 8.53357 2.77832C8.55064 2.76302 8.56424 2.75144 8.57361 2.74316C8.57818 2.73913 8.58171 2.73571 8.58435 2.7334C8.58568 2.73223 8.58746 2.73117 8.58826 2.73047L8.58923 2.72949C8.59155 2.73191 8.62102 2.7648 9.00037 3.2002L8.58923 2.72852Z" stroke="#184862" stroke-width="1.25" stroke-linecap="round" stroke-linejoin="round"/>
</svg>
