<svg width="18" height="18" viewBox="0 0 18 18" fill="none" xmlns="http://www.w3.org/2000/svg">
<path opacity="0.2" d="M3.75 15.25H14.25C15.3546 15.25 16.25 14.3546 16.25 13.25V4.75C16.25 3.64543 15.3546 2.75 14.25 2.75H3.75C2.64543 2.75 1.75 3.64543 1.75 4.75V13.25C1.75 14.3546 2.64543 15.25 3.75 15.25Z" fill="#184862"/>
<path d="M3.75 15.25H14.25C15.3546 15.25 16.25 14.3546 16.25 13.25V4.75C16.25 3.64543 15.3546 2.75 14.25 2.75H3.75C2.64543 2.75 1.75 3.64543 1.75 4.75V13.25C1.75 14.3546 2.64543 15.25 3.75 15.25Z" stroke="#184862" stroke-width="1.25" stroke-linecap="round" stroke-linejoin="round"/>
<path d="M4.25 6C4.66421 6 5 5.66421 5 5.25C5 4.83579 4.66421 4.5 4.25 4.5C3.83579 4.5 3.5 4.83579 3.5 5.25C3.5 5.66421 3.83579 6 4.25 6Z" fill="#184862"/>
<path d="M6.75 6C7.16421 6 7.5 5.66421 7.5 5.25C7.5 4.83579 7.16421 4.5 6.75 4.5C6.33579 4.5 6 4.83579 6 5.25C6 5.66421 6.33579 6 6.75 6Z" fill="#184862"/>
<path d="M9.25 6C9.66421 6 10 5.66421 10 5.25C10 4.83579 9.66421 4.5 9.25 4.5C8.83579 4.5 8.5 4.83579 8.5 5.25C8.5 5.66421 8.83579 6 9.25 6Z" fill="#184862"/>
</svg>
