<svg width="16" height="16" viewBox="0 0 16 16" fill="none" xmlns="http://www.w3.org/2000/svg">
<path d="M7.99182 13.7356C6.39082 13.7356 5.03604 13.4899 3.92748 12.9983C2.81893 12.5068 2.26465 11.9074 2.26465 11.2001V4.80015C2.26465 4.09626 2.82237 3.4977 3.93782 3.00448C5.05326 2.51126 6.40459 2.26465 7.99182 2.26465C9.57637 2.26465 10.9298 2.51126 12.0521 3.00448C13.1745 3.4977 13.7356 4.09626 13.7356 4.80015V11.2001C13.7356 11.9074 13.1779 12.5068 12.0625 12.9983C10.947 13.4899 9.59015 13.7356 7.99182 13.7356ZM7.99965 5.99615C8.95287 5.99615 9.87126 5.87737 10.7548 5.63982C11.6384 5.40226 12.1841 5.12237 12.3921 4.80015C12.1841 4.48904 11.6343 4.21259 10.7425 3.97082C9.8507 3.72904 8.93643 3.60815 7.99965 3.60815C7.05243 3.60815 6.13293 3.7297 5.24115 3.97282C4.34937 4.21593 3.80504 4.4917 3.60815 4.80015C3.80237 5.12237 4.33915 5.40226 5.21848 5.63982C6.09782 5.87737 7.02487 5.99615 7.99965 5.99615ZM8.00015 9.18815C8.45882 9.18815 8.89793 9.16248 9.31748 9.11115C9.73704 9.05982 10.1323 8.98904 10.5031 8.89882C10.8741 8.80859 11.2193 8.69276 11.5385 8.55132C11.8578 8.40976 12.1424 8.24743 12.3921 8.06432V6.42298C12.1175 6.56987 11.8169 6.70037 11.4905 6.81448C11.164 6.92859 10.8142 7.02304 10.441 7.09782C10.0678 7.17259 9.67598 7.22959 9.26565 7.26882C8.85532 7.30804 8.4307 7.32765 7.99182 7.32765C7.55826 7.32765 7.13448 7.30804 6.72048 7.26882C6.30659 7.22959 5.91482 7.17193 5.54515 7.09582C5.17548 7.0197 4.82548 6.92398 4.49515 6.80865C4.1647 6.69332 3.86904 6.56476 3.60815 6.42298V8.06432C3.85982 8.24409 4.14137 8.40559 4.45282 8.54882C4.76437 8.69193 5.10693 8.80859 5.48048 8.89882C5.85393 8.98904 6.25259 9.05982 6.67648 9.11115C7.10026 9.16248 7.54148 9.18815 8.00015 9.18815ZM8.00548 12.3921C8.47882 12.3921 8.96132 12.3573 9.45298 12.2876C9.94476 12.2179 10.3986 12.1253 10.8145 12.0098C11.2304 11.8945 11.5815 11.7632 11.868 11.616C12.1545 11.4688 12.3293 11.319 12.3921 11.1668V9.60298C12.1201 9.75265 11.8209 9.88648 11.4945 10.0045C11.168 10.1226 10.8169 10.2197 10.441 10.2958C10.0651 10.3719 9.67198 10.4303 9.26165 10.4708C8.85132 10.5114 8.42804 10.5316 7.99182 10.5316C7.55826 10.5316 7.13448 10.5114 6.72048 10.4708C6.30659 10.4303 5.91415 10.3706 5.54315 10.2918C5.17226 10.213 4.82159 10.1146 4.49115 9.99665C4.1607 9.87865 3.86637 9.74609 3.60815 9.59898V11.2001C3.6717 11.3419 3.84776 11.485 4.13632 11.6295C4.42498 11.7739 4.77632 11.901 5.19032 12.0108C5.60432 12.1206 6.0587 12.2116 6.55348 12.2838C7.04815 12.356 7.53215 12.3921 8.00548 12.3921Z" fill="#184862"/>
</svg>
