<svg width="18" height="18" viewBox="0 0 18 18" fill="none" xmlns="http://www.w3.org/2000/svg">
<path opacity="0.2" d="M14.75 2.75H9.25C8.42157 2.75 7.75 3.42157 7.75 4.25V13.75C7.75 14.5784 8.42157 15.25 9.25 15.25H14.75C15.5784 15.25 16.25 14.5784 16.25 13.75V4.25C16.25 3.42157 15.5784 2.75 14.75 2.75Z" fill="#184862"/>
<path d="M14.75 2.75H9.25C8.42157 2.75 7.75 3.42157 7.75 4.25V13.75C7.75 14.5784 8.42157 15.25 9.25 15.25H14.75C15.5784 15.25 16.25 14.5784 16.25 13.75V4.25C16.25 3.42157 15.5784 2.75 14.75 2.75Z" stroke="#184862" stroke-width="1.25" stroke-linecap="round" stroke-linejoin="round"/>
<path d="M12 13C12.5523 13 13 12.5523 13 12C13 11.4477 12.5523 11 12 11C11.4477 11 11 11.4477 11 12C11 12.5523 11.4477 13 12 13Z" fill="#184862"/>
<path d="M10.75 5.75H13.25" stroke="#184862" stroke-width="1.25" stroke-linecap="round" stroke-linejoin="round"/>
<path d="M10.75 8.25H13.25" stroke="#184862" stroke-width="1.25" stroke-linecap="round" stroke-linejoin="round"/>
<path d="M4.75 10.75H2.75C2.198 10.75 1.75 10.302 1.75 9.75V5.25C1.75 4.698 2.198 4.25 2.75 4.25H4.75" stroke="#184862" stroke-width="1.25" stroke-linecap="round" stroke-linejoin="round"/>
<path d="M5.25 13.25C3.708 13.25 2.75 14 2.75 14" stroke="#184862" stroke-width="1.25" stroke-linecap="round" stroke-linejoin="round"/>
</svg>
