<svg width="18" height="18" viewBox="0 0 18 18" fill="none" xmlns="http://www.w3.org/2000/svg">
<path opacity="0.2" d="M2 5.25C2 4.14543 2.89543 3.25 4 3.25H14C15.1046 3.25 16 4.14543 16 5.25V12.75C16 13.8546 15.1046 14.75 14 14.75H4C2.89543 14.75 2 13.8546 2 12.75V5.25Z" fill="#184862"/>
<path d="M16.25 12V12.75C16.25 13.855 15.355 14.75 14.25 14.75H3.75C2.645 14.75 1.75 13.855 1.75 12.75V12" stroke="#184862" stroke-width="1.25" stroke-linecap="round" stroke-linejoin="round"/>
<path d="M1.75 6V5.25C1.75 4.145 2.645 3.25 3.75 3.25H14.25C15.355 3.25 16.25 4.145 16.25 5.25V6" stroke="#184862" stroke-width="1.25" stroke-linecap="round" stroke-linejoin="round"/>
<path d="M9.23801 11.7882C8.71534 11.7882 8.25667 11.6949 7.862 11.5082C7.47267 11.3215 7.16867 11.0255 6.95 10.6202C6.73667 10.2095 6.63 9.67355 6.63 9.01222C6.63 8.36155 6.73667 7.83088 6.95 7.42022C7.16867 7.00955 7.47267 6.70821 7.862 6.51621C8.25667 6.31888 8.71534 6.22021 9.23801 6.22021C9.57401 6.22021 9.90201 6.25488 10.222 6.32421C10.542 6.39355 10.8487 6.48955 11.142 6.61222V7.78821C10.822 7.62288 10.5233 7.48955 10.246 7.38822C9.974 7.28688 9.69134 7.23622 9.39801 7.23622C9.09401 7.23622 8.83267 7.28955 8.61401 7.39621C8.40067 7.50288 8.238 7.68688 8.126 7.94822C8.014 8.20422 7.958 8.55622 7.958 9.00422C7.958 9.44688 8.014 9.79888 8.126 10.0602C8.24334 10.3162 8.40601 10.5002 8.61401 10.6122C8.82201 10.7242 9.06467 10.7802 9.34201 10.7802C9.48601 10.7802 9.61934 10.7722 9.74201 10.7562C9.87001 10.7349 9.98201 10.7002 10.078 10.6522V9.70822H9.198V8.70022H11.374V11.2122C11.0433 11.3935 10.6967 11.5349 10.334 11.6362C9.97667 11.7375 9.61134 11.7882 9.23801 11.7882Z" fill="#184862"/>
<path d="M1.75 9.75C2.16421 9.75 2.5 9.41421 2.5 9C2.5 8.58579 2.16421 8.25 1.75 8.25C1.33579 8.25 1 8.58579 1 9C1 9.41421 1.33579 9.75 1.75 9.75Z" fill="#184862"/>
<path d="M16.25 9.75C16.6642 9.75 17 9.41421 17 9C17 8.58579 16.6642 8.25 16.25 8.25C15.8358 8.25 15.5 8.58579 15.5 9C15.5 9.41421 15.8358 9.75 16.25 9.75Z" fill="#184862"/>
</svg>
