<svg width="16" height="16" viewBox="0 0 16 16" fill="none" xmlns="http://www.w3.org/2000/svg">
<g clip-path="url(#clip0_238_8061)">
<path d="M7.34052 15.3279V13.6945C5.98818 13.5363 4.84991 12.991 3.92569 12.0587C3.00157 11.1264 2.46174 9.99352 2.30619 8.66019H0.672852V7.34052H2.30619C2.46441 5.9993 3.00691 4.8638 3.93369 3.93402C4.86046 3.00435 5.99607 2.46174 7.34052 2.30619V0.672852H8.66019V2.30619C10.0046 2.46174 11.1402 3.00435 12.067 3.93402C12.9938 4.8638 13.5363 5.9993 13.6945 7.34052H15.3279V8.66019H13.6945C13.539 9.99352 12.9991 11.1264 12.075 12.0587C11.1508 12.991 10.0125 13.5363 8.66019 13.6945V15.3279H7.34052ZM8.00035 12.3525C9.21191 12.3525 10.2402 11.9301 11.0852 11.0852C11.9301 10.2402 12.3525 9.21191 12.3525 8.00035C12.3525 6.7888 11.9301 5.76052 11.0852 4.91552C10.2402 4.07063 9.21191 3.64819 8.00035 3.64819C6.7888 3.64819 5.76052 4.07063 4.91552 4.91552C4.07063 5.76052 3.64818 6.7888 3.64818 8.00035C3.64818 9.21191 4.07063 10.2402 4.91552 11.0852C5.76052 11.9301 6.7888 12.3525 8.00035 12.3525ZM8.00035 10.4004C7.33369 10.4004 6.76702 10.167 6.30035 9.70035C5.83368 9.23369 5.60035 8.66702 5.60035 8.00035C5.60035 7.33369 5.83368 6.76702 6.30035 6.30035C6.76702 5.83369 7.33369 5.60035 8.00035 5.60035C8.66702 5.60035 9.23369 5.83369 9.70035 6.30035C10.167 6.76702 10.4004 7.33369 10.4004 8.00035C10.4004 8.66702 10.167 9.23369 9.70035 9.70035C9.23369 10.167 8.66702 10.4004 8.00035 10.4004ZM7.99968 9.19352C8.32768 9.19352 8.60863 9.07674 8.84252 8.84319C9.07652 8.60963 9.19352 8.32891 9.19352 8.00102C9.19352 7.67302 9.07674 7.39207 8.84319 7.15819C8.60963 6.92418 8.32891 6.80719 8.00102 6.80719C7.67302 6.80719 7.39207 6.92396 7.15819 7.15752C6.92418 7.39107 6.80719 7.6718 6.80719 7.99969C6.80719 8.32769 6.92396 8.60863 7.15752 8.84252C7.39107 9.07652 7.6718 9.19352 7.99968 9.19352Z" fill="#184862"/>
</g>
<defs>
<clipPath id="clip0_238_8061">
<rect width="16" height="16" fill="white"/>
</clipPath>
</defs>
</svg>
